<?xml version="1.0" standalone="no"?>
<!DOCTYPE svg PUBLIC "-//W3C//DTD SVG 20010904//EN"
 "http://www.w3.org/TR/2001/REC-SVG-20010904/DTD/svg10.dtd">
<svg version="1.0" xmlns="http://www.w3.org/2000/svg"
 width="512.000000pt" height="512.000000pt" viewBox="0 0 512.000000 512.000000"
 preserveAspectRatio="xMidYMid meet">

<g transform="translate(0.000000,512.000000) scale(0.100000,-0.100000)"
fill="#000000" stroke="none">
<path d="M2511 4796 c-48 -27 -50 -42 -51 -338 0 -179 4 -286 11 -301 12 -27
58 -57 88 -57 33 0 67 20 84 50 15 24 17 64 17 304 0 192 -4 283 -12 301 -22
48 -88 68 -137 41z"/>
<path d="M1559 4481 c-54 -54 -47 -75 112 -327 78 -123 153 -234 167 -245 36
-28 98 -21 129 16 45 52 36 77 -118 321 -77 123 -152 233 -166 244 -38 30 -88
26 -124 -9z"/>
<path d="M3437 4490 c-14 -11 -89 -121 -166 -244 -154 -244 -163 -269 -118
-321 31 -37 93 -44 129 -16 14 11 89 122 167 245 115 183 141 230 141 261 0
77 -92 123 -153 75z"/>
<path d="M941 3931 c-32 -11 -69 -34 -91 -57 -38 -39 -810 -1389 -837 -1464
-16 -45 -16 -102 -1 -152 22 -73 76 -120 256 -220 160 -89 170 -93 237 -96 62
-3 77 0 125 25 49 26 91 69 126 129 10 17 13 17 55 -8 57 -34 129 -96 129
-112 0 -7 -15 -39 -32 -72 -30 -54 -33 -66 -33 -149 0 -71 5 -100 22 -137 41
-90 140 -173 228 -192 29 -6 31 -10 42 -75 13 -85 45 -153 94 -202 41 -41 114
-82 167 -94 30 -6 32 -9 32 -49 0 -138 101 -270 240 -312 l55 -16 2 -54 c4
-113 91 -237 201 -287 36 -16 67 -21 132 -22 111 0 152 20 332 166 l138 111
68 -55 c113 -91 141 -102 257 -102 92 0 104 2 153 30 68 37 137 113 159 174
l16 47 101 -1 c88 0 108 3 151 25 108 53 183 162 193 277 4 60 6 62 36 69 51
11 124 52 165 93 50 50 80 116 94 200 l10 69 41 12 c68 20 110 46 155 95 67
73 86 124 86 230 0 83 -3 95 -32 149 -18 33 -33 65 -33 72 0 16 72 78 129 112
42 25 45 25 55 8 37 -63 77 -104 126 -129 48 -25 64 -28 125 -25 67 3 77 7
230 92 88 49 175 103 193 120 61 57 90 138 78 219 -8 50 -195 391 -230 419
-34 28 -92 23 -127 -11 -46 -46 -40 -77 41 -221 114 -201 126 -228 114 -248
-14 -22 -283 -172 -309 -172 -11 0 -25 4 -31 8 -15 10 -794 1389 -794 1406 0
20 25 37 174 120 117 65 143 76 161 68 13 -6 54 -68 104 -156 45 -80 91 -155
103 -166 33 -30 98 -27 132 6 47 48 38 83 -64 263 -56 100 -104 172 -129 194
-50 45 -132 71 -195 62 -42 -7 -250 -112 -367 -186 -97 -62 -141 -180 -105
-281 l14 -38 -82 -25 c-44 -14 -106 -30 -137 -37 l-56 -11 -219 77 c-281 98
-311 106 -419 106 -114 0 -592 -45 -686 -64 -84 -18 -174 -57 -211 -93 l-28
-26 -62 17 c-35 9 -93 26 -129 37 l-66 20 13 37 c41 115 -11 226 -142 303
-273 161 -344 185 -443 150z m226 -257 c147 -81 173 -99 173 -120 0 -17 -779
-1396 -794 -1406 -6 -4 -19 -8 -29 -8 -22 0 -290 145 -308 167 -9 11 -10 22
-3 42 20 51 767 1366 786 1384 11 9 24 17 29 17 5 0 71 -34 146 -76z m1883
-418 c240 -86 246 -88 315 -82 39 3 131 23 205 45 74 22 138 37 141 33 13 -13
532 -937 536 -952 2 -10 -19 -29 -62 -55 -36 -22 -88 -63 -116 -91 l-51 -52
-242 191 c-246 195 -544 419 -694 521 -242 164 -397 199 -692 156 -165 -24
-229 -22 -312 10 -85 32 -138 89 -163 173 -17 58 -10 79 38 103 50 26 119 42
241 54 323 33 390 38 496 36 l115 -3 245 -87z m-1496 -36 c77 -22 142 -43 146
-47 3 -5 12 -30 18 -58 46 -184 191 -315 388 -350 106 -19 133 -19 298 6 299
45 373 20 735 -243 259 -188 829 -637 880 -691 31 -34 39 -103 17 -146 -36
-69 -132 -92 -197 -48 -19 13 -94 71 -168 130 -115 91 -140 107 -170 107 -56
-1 -101 -47 -101 -104 0 -35 32 -68 195 -199 115 -92 142 -119 153 -151 16
-50 2 -102 -38 -141 -27 -26 -39 -30 -89 -30 l-57 0 -172 138 c-195 155 -214
162 -274 108 -27 -24 -33 -36 -33 -69 0 -51 6 -57 192 -204 154 -122 183 -155
183 -215 0 -65 -67 -133 -132 -133 -46 0 -72 15 -225 138 -83 66 -159 125
-171 131 -84 45 -177 -52 -129 -135 7 -12 48 -51 92 -87 106 -85 116 -98 122
-150 9 -81 -49 -147 -130 -147 -48 0 -63 8 -164 88 -82 64 -82 64 -88 121 -13
107 -85 221 -169 268 -19 10 -19 12 3 59 46 98 45 207 -2 301 -24 46 -90 117
-132 140 -18 10 -18 13 9 72 58 129 27 280 -76 377 -70 65 -126 88 -218 89
-41 0 -92 -4 -112 -9 -33 -7 -38 -6 -38 10 0 30 -55 118 -96 154 -65 57 -138
84 -224 84 -105 0 -153 -24 -328 -165 l-147 -117 -60 57 c-33 32 -86 73 -117
91 -32 19 -58 39 -58 44 0 8 95 177 452 809 49 86 90 157 91 157 1 0 65 -18
141 -40z m83 -1049 c25 -12 48 -32 57 -50 23 -44 21 -112 -5 -145 -22 -27
-336 -284 -405 -331 -68 -46 -163 -24 -200 46 -20 40 -14 111 12 141 37 41
417 341 443 348 40 12 52 11 98 -9z m474 -244 c18 -12 39 -34 46 -47 20 -40
16 -113 -8 -143 -11 -15 -149 -129 -307 -254 l-286 -228 -58 0 c-49 0 -61 4
-88 30 -40 39 -54 91 -38 141 11 34 49 68 278 253 146 117 285 226 309 242 55
36 105 38 152 6z m119 -492 c48 -25 70 -62 70 -119 0 -31 -6 -61 -16 -75 -21
-30 -409 -340 -441 -352 -84 -32 -183 34 -183 121 0 65 25 93 233 257 111 88
211 165 222 171 28 16 81 15 115 -3z m145 -509 c57 -37 77 -126 41 -180 -23
-36 -260 -224 -291 -232 -124 -31 -223 125 -138 218 29 33 238 197 264 208 31
13 93 6 124 -14z"/>
<path d="M4537 3172 c-77 -80 13 -202 113 -154 38 18 60 65 52 108 -14 72
-113 100 -165 46z"/>
</g>
</svg>
