<?xml version="1.0" encoding="UTF-8"?>
<svg id="Layer_1" data-name="Layer 1" xmlns="http://www.w3.org/2000/svg" version="1.1" viewBox="0 0 512 512">
  <defs>
    <style>
      .cls-1 {
        fill: none;
        stroke: #141414;
        stroke-linecap: round;
        stroke-linejoin: round;
        stroke-width: 18.5px;
      }
    </style>
  </defs>
  <circle class="cls-1" cx="209.7" cy="248.7" r="67.7" transform="translate(-114.4 221.1) rotate(-45)"/>
  <path class="cls-1" d="M338.4,389.5c-6.4-10.7-14-20.5-22.8-29.2-27.1-27.1-64.6-43.9-106-43.9s-102.6,29.3-128.7,73.1"/>
  <path class="cls-1" d="M329.7,114.3c-32.4-27.5-74.2-44-120-44-102.5,0-185.6,83.1-185.6,185.6s21.8,99.9,56.8,133.7c33.4,32.1,78.7,51.9,128.7,51.9s95.4-19.8,128.7-51.9c30.8-29.7,51.4-70,55.9-115"/>
  <circle class="cls-1" cx="395.3" cy="181" r="93.6" transform="translate(-12.2 332.5) rotate(-45)"/>
  <path class="cls-1" d="M381.9,194.1h-22.2c-7.2,0-13-5.8-13-13s5.8-13,13-13h22.2v-21.7c0-7.3,6-13.4,13.4-13.4s13.4,6,13.4,13.4v21.7h22.2c7.2,0,13,5.8,13,13s-5.8,13-13,13h-22.2v21.7c0,7.3-6,13.4-13.4,13.4s-13.4-6-13.4-13.4v-21.7Z"/>
</svg>